<?xml version="1.0" encoding="utf-8"?>
<svg xmlns="http://www.w3.org/2000/svg"
	xmlns:xlink="http://www.w3.org/1999/xlink"
	width="20px" height="26px" viewBox="0 0 20 26">
<path fillRule="evenodd" d="M 10 25.8C 10 25.8 0.4 15.1 0.4 9.8 0.4 4.5 4.7 0.2 10 0.2 15.3 0.2 19.6 4.5 19.6 9.8 19.6 15.1 10 25.8 10 25.8ZM 10 3.4C 6.47 3.4 3.6 6.27 3.6 9.8 3.6 13.33 6.47 16.2 10 16.2 13.53 16.2 16.4 13.33 16.4 9.8 16.4 6.27 13.53 3.4 10 3.4ZM 10 13C 8.23 13 6.8 11.57 6.8 9.8 6.8 8.03 8.23 6.6 10 6.6 11.77 6.6 13.2 8.03 13.2 9.8 13.2 11.57 11.77 13 10 13Z" fill="rgb(243,129,129)"/></svg>